# xmcd
#
# Track frame offsets:
#	150
#	14675
#	29075
#	42539
#	55563
#	69315
#	80901
#	94190
#	107142
#	120653
#	133068
#	146580
#	161984
#	176597
#	190081
#	203616
#	215440
#	227606
#
# Disc length: 3223 seconds
#
# Revision: 1
# Processed by: cddbd v1.5.1PL0 Copyright (c) Steve Scherf et al.
# Submitted via: EasyCDDAExtractor 7.0.0.1
#
DISCID=090c9512
DTITLE=The Carter Family - Greatest Hits 1927-1934
DYEAR=2003
DGENRE=Country
TTITLE0=Wildwood Flower
TTITLE1=My Clinch Mountain Home
TTITLE2=The Foggy Mountain Top
TTITLE3=Keep on the Sunnyside
TTITLE4=I'm Thinking Tonight of My Blues Eyes
TTITLE5=Jimmy Brown the Newsboy
TTITLE6=John Hardy Was a Desperate Little Man
TTITLE7=Lula Wall
TTITLE8=Wabash Cannonball
TTITLE9=Worrid Man Blues
TTITLE10=Carter's Blues
TTITLE11=Diamonds in the Rough
TTITLE12=Church in the Wildwood
TTITLE13=Lonesome Pine Special
TTITLE14=The Cannonball
TTITLE15=I Never Will Marry
TTITLE16=Lonesome Valley
TTITLE17=Sweet Fern (Sweet Fern)
EXTD=
EXTT0=
EXTT1=
EXTT2=
EXTT3=
EXTT4=
EXTT5=
EXTT6=
EXTT7=
EXTT8=
EXTT9=
EXTT10=
EXTT11=
EXTT12=
EXTT13=
EXTT14=
EXTT15=
EXTT16=
EXTT17=
PLAYORDER=
